<?xml version="1.0" encoding="UTF-8" standalone="no"?>
<!-- Creator: CorelDRAW 2020 (64-Bit) -->

<svg
   xml:space="preserve"
   width="32"
   height="32"
   version="1.1"
   style="clip-rule:evenodd;fill-rule:evenodd;image-rendering:optimizeQuality;shape-rendering:geometricPrecision;text-rendering:geometricPrecision"
   viewBox="0 0 32 32"
   id="svg13"
   sodipodi:docname="favicon.svg"
   inkscape:version="1.1 (c68e22c387, 2021-05-23)"
   xmlns:inkscape="http://www.inkscape.org/namespaces/inkscape"
   xmlns:sodipodi="http://sodipodi.sourceforge.net/DTD/sodipodi-0.dtd"
   xmlns="http://www.w3.org/2000/svg"
   xmlns:svg="http://www.w3.org/2000/svg"><sodipodi:namedview
   id="namedview15"
   pagecolor="#ffffff"
   bordercolor="#666666"
   borderopacity="1.0"
   inkscape:pageshadow="2"
   inkscape:pageopacity="0.0"
   inkscape:pagecheckerboard="0"
   showgrid="false"
   inkscape:zoom="24.236764"
   inkscape:cx="15.018507"
   inkscape:cy="17.927311"
   inkscape:window-width="1920"
   inkscape:window-height="1137"
   inkscape:window-x="-8"
   inkscape:window-y="-8"
   inkscape:window-maximized="1"
   inkscape:current-layer="x0020_1" />
 <defs
   id="defs4">
  <style
   type="text/css"
   id="style2">
   <![CDATA[
    .fil0 {fill:#566BAF}
    .fil1 {fill:white}
   ]]>
  </style>
 </defs>
 <g
   id="x0020_1"
   inkscape:label="x0020_1"
   inkscape:groupmode="layer">
  <metadata
   id="CorelCorpID_0Corel-Layer" />
  <g
   id="_2859556224768"
   transform="matrix(0.04558041,0,0,0.04558041,4.5700036,-1.4493469e-4)">
   <path
   class="fil0"
   d="m 0.802,200.956 c 2.252,27.286 5.325,43.057 11.531,68.686 2.451,10.12 27.128,60.051 27.117,60.145 -0.187,1.676 -0.188,3.222 -0.197,5.063 -0.569,110.508 -1.535,217.552 48.198,319.919 10.101,20.809 31.928,51.001 58.339,46.911 17.934,-1.408 31.157,-17.19 31.125,-35.284 -0.117,-59.358 12.384,-194.495 51.12,-244.307 16.125,-21.577 32.741,-22.244 47.428,2.286 39.048,68.772 49.239,151.368 49.346,229.564 0.043,33.855 14.563,45.977 38.261,47.144 17.863,0.879 31.391,-15.107 36.135,-22.034 63.019,-92.069 69.3,-262.147 63.042,-350.423 0.063,-1.062 1.206,-2.608 1.859,-3.452 23.44,-34.815 37.126,-88.361 37.17,-130.47 C 501.344,129.56 495.293,79.123 455.09,29.156 438.531,8.576 417.162,-3.374 389.278,0.842 327.569,10.174 325.589,34.751 242.108,35.965 178.655,36.888 146.975,4.793 114.66,1.568 106.2,0.724 101.927,-0.263 92.864,0.899 68.742,3.992 46.874,27.499 33.995,46.738 7.425,86.425 -3.148,153.087 0.802,200.956 Z"
   id="path7" />
   <path
   class="fil1"
   d="m 43.037,275.906 c 19.755,41.247 35.362,55.162 87.263,69.197 5.423,1.466 17.021,2.425 33.698,6.033 -41.229,4.529 -84.032,-1.498 -95.174,-5.458 -0.792,-0.282 -1.766,-0.606 -2.577,-0.563 -0.641,2.341 -1.152,26.135 -1.152,31.894 -0.016,90.848 9.258,196.361 53.482,277.075 5.454,7.903 14.137,21.488 25.321,20.393 7.085,-0.694 5.839,-16.89 5.924,-22.445 0.801,-74.133 14.358,-192.625 61.403,-252.948 10.879,-13.954 38.13,-29.265 55.827,-34.54 20.351,-6.065 37.796,-9.028 64.889,-7.372 0.763,0.028 1.493,0.795 -0.247,1.189 -10.549,1.664 -30.29,6.677 -38.075,9.546 -5.572,2.053 -21.932,9.133 -26.33,13.174 1.832,1.499 5.455,2.791 7.759,4.204 63.513,39.05 68.273,174.735 73.467,241.787 0.557,7.202 -2.764,45.703 12.456,47.726 12.34,1.639 18.71,-13.641 25.602,-26.117 41.546,-75.199 56.62,-217.918 49.735,-290.593 -0.37,-3.913 -0.246,-8.268 -0.272,-12.366 -0.787,-0.522 -1.209,-0.965 -2.54,-0.584 -17.907,5.118 -74.677,-4.839 -85.826,-19.239 2.98,-0.183 16.578,2.901 21.744,3.794 18.943,3.275 56.195,2.036 68.899,-14.738 16.404,-21.65 29.617,-60.37 32.379,-87.406 5.77,-56.459 4.549,-114.997 -25.611,-165.896 -6.064,-11.622 -23.895,-26.315 -37.241,-28.654 -10.705,-1.877 -10.576,-1.203 -20.338,1.335 -24.256,9.799 -40.759,21.281 -60.138,35.058 -24.709,17.567 -69.874,38.7 -110.17,37.981 -3.515,-0.038 -23.302,-0.054 -23.887,-0.347 18.273,-2.527 47.386,-6.384 79.24,-23.719 6.733,-3.664 19.317,-11.155 26.943,-16.894 2.087,-1.57 5.986,-4.46 8.398,-6.203 0.913,-0.798 0.319,0.018 0.659,-0.93 -3.407,-0.024 -6.279,0.674 -9.526,1.207 C 257.087,67.374 184.889,63.654 135.354,39.075 121.116,32.01 112.73,25.753 101.19,27.637 83.923,30.454 73.977,38.383 63.408,51.94 45.637,77.016 38.484,96.482 33.14,127.046 27.797,157.61 23.283,234.66 43.037,275.906 Z"
   id="path9" />
  </g>
 </g>
</svg>
