<?xml version="1.0" encoding="UTF-8"?>

<svg xmlns="http://www.w3.org/2000/svg"
  xml:space="preserve"

  version="1.1"
  style="shape-rendering:geometricPrecision; text-rendering:geometricPrecision; image-rendering:optimizeQuality; fill-rule:evenodd; clip-rule:evenodd"
viewBox="0 0 50 50"
aria-hidden="true" focusable="false" role="img"
class="icon_trigger">

  <path fill="currentColor" class="icon" d="M27.664 7.201c0.799,0.362 1.518,0.887 2.109,1.536 0.698,0.766 -0.271,1.649 -0.97,0.883 -0.471,-0.517 -1.044,-0.936 -1.681,-1.225 -0.944,-0.428 -0.403,-1.622 0.542,-1.194zm3.79 5.881c0,3.564 -2.89,6.454 -6.454,6.454 -3.564,0 -6.454,-2.89 -6.454,-6.454 0,-3.032 2.115,-5.661 5.073,-6.306 1.013,-0.221 1.292,1.06 0.279,1.281 -2.356,0.514 -4.041,2.61 -4.041,5.025 0,2.84 2.302,5.143 5.143,5.143 2.841,0 5.143,-2.303 5.143,-5.143 0,-1.037 1.311,-1.037 1.311,0zm-6.454 -1.614c0.891,0 1.614,0.722 1.614,1.614 0,0.891 -0.723,1.614 -1.614,1.614 -0.891,0 -1.614,-0.723 -1.614,-1.614 0,-0.892 0.723,-1.614 1.614,-1.614zm4.564 19.75c9.499,0.922 16.609,4.664 16.609,9.141 0,5.17 -9.48,9.36 -21.173,9.36 -11.693,0 -21.173,-4.19 -21.173,-9.36 0,-4.477 7.11,-8.219 16.609,-9.141 -3.853,-7.151 -8.177,-11.538 -8.177,-18.197 0,-7.036 5.704,-12.741 12.741,-12.741 7.037,0 12.741,5.705 12.741,12.741 0,6.659 -4.324,11.046 -8.177,18.197zm-7.312 -0.141l0.013 0.026 0.009 0.018 0.004 0.007 0.013 0.026 0.014 0.025 0.013 0.026 0.013 0.025 0.013 0.026 0.013 0.025 0.004 0.006 0.009 0.02 0.014 0.025 0.013 0.026 0.013 0.025 0.013 0.026 0.013 0.025 0.01 0.02 0.003 0.006 0.013 0.025 0.013 0.026 0.013 0.025 0.013 0.026 0.013 0.026 0.013 0.025 0.005 0.008 0.009 0.018 0.012 0.025 0.013 0.026 0.013 0.025 0.013 0.026 0.013 0.026 0.011 0.021 0.002 0.004 0.013 0.026 0.013 0.025 0.013 0.026 0.012 0.026 0.013 0.025 0.013 0.026 0.005 0.01 0.008 0.016 0.013 0.025 0.012 0.026 0.013 0.025 0.013 0.026 0.013 0.026 0.012 0.023 0 0.002 0.013 0.026 0.013 0.026 0.012 0.025 0.013 0.026 0.013 0.026 0.012 0.026 0.006 0.011 0.007 0.014 0.013 0.026 0.012 0.026 0.013 0.025 0.012 0.026 0.013 0.026 0.012 0.025 0 0 0.013 0.026 0.012 0.026 0.013 0.026 0.012 0.025 0.013 0.026 0.012 0.026 0.007 0.014 0.005 0.012 0.013 0.026 0.012 0.025 0.013 0.026c0.715,1.49 1.362,3.01 1.927,4.595 0.569,-1.588 1.213,-3.107 1.927,-4.595l0.012 -0.026 0.013 -0.025 0.012 -0.026 0.008 -0.017 0.005 -0.009 0.012 -0.026 0.013 -0.026 0.012 -0.025 0.012 -0.026 0.013 -0.026 0.013 -0.026 0.002 -0.004 0.01 -0.021 0.013 -0.026 0.012 -0.026 0.013 -0.025 0.012 -0.026 0.051 -0.103 0.013 -0.026 0.012 -0.025 0.013 -0.026 0.013 -0.026 0.003 -0.006 0.009 -0.019 0.013 -0.026 0.013 -0.026 0.013 -0.025 0.012 -0.026 0.013 -0.025 0.01 -0.021 0.003 -0.005 0.013 -0.026 0.013 -0.025 0.012 -0.026 0.013 -0.026 0.013 -0.025 0.013 -0.026 0.004 -0.009 0.009 -0.016 0.013 -0.026 0.013 -0.026 0.013 -0.025 0.013 -0.026 0.012 -0.025 0.012 -0.023 0.002 -0.003 0.013 -0.025 0.013 -0.026 0.013 -0.026 0.013 -0.025 0.013 -0.026 0.013 -0.025 0.005 -0.011 0.008 -0.015 0.013 -0.025 0.013 -0.026 0.013 -0.025 0.013 -0.026 0.026 -0.05 0.001 -0.001 0.013 -0.025 0.013 -0.026 0.013 -0.025 0.013 -0.026 0.014 -0.025 0.013 -0.026 0.007 -0.013 0.006 -0.012 0.013 -0.026c0.806,-1.543 1.689,-3.063 2.637,-4.613 1.773,-2.884 3.968,-6.04 5.008,-9.272 0.438,-1.363 0.667,-2.738 0.667,-4.171 0,-6.108 -4.951,-11.06 -11.06,-11.06 -6.109,0 -11.061,4.952 -11.061,11.06 0,1.433 0.23,2.809 0.668,4.171 1.04,3.235 3.239,6.394 5.014,9.28 0.949,1.545 1.828,3.065 2.631,4.605zm-0.986 1.744c-8.979,0.686 -15.758,3.8 -15.758,7.538 0,4.241 8.727,7.679 19.492,7.679 10.765,0 19.492,-3.438 19.492,-7.679 0,-3.738 -6.779,-6.852 -15.758,-7.538 -1.085,2.187 -2.102,4.633 -2.936,7.463 -0.368,1.252 -1.217,1.291 -1.589,0.026 -0.835,-2.841 -1.855,-5.295 -2.943,-7.489zm13.75 11.591c-0.989,0.321 -2.03,0.542 -3.055,0.713 -1.017,0.169 -1.232,-1.119 -0.213,-1.288 0.96,-0.159 1.939,-0.366 2.865,-0.666 0.982,-0.32 1.385,0.922 0.403,1.241zm-6.603 1.12c-1.135,0.079 -2.275,0.117 -3.413,0.117 -3.127,0 -6.971,-0.263 -9.964,-1.221 -0.983,-0.314 -0.586,-1.557 0.398,-1.243 2.855,0.914 6.583,1.159 9.566,1.159 1.108,0 2.217,-0.037 3.322,-0.114 1.03,-0.072 1.121,1.23 0.091,1.302z"/>

</svg>
