<?xml version="1.0" encoding="UTF-8"?>

<svg xmlns="http://www.w3.org/2000/svg"
	xml:space="preserve"

	version="1.1"
	style="shape-rendering:geometricPrecision; text-rendering:geometricPrecision; image-rendering:optimizeQuality; fill-rule:evenodd; clip-rule:evenodd"
viewBox="0 0 50 50"
aria-hidden="true" focusable="false" role="img"
class="icon_trigger">

  <path fill="currentColor" class="icon" d="M25 2.088c-6.641,2.933 -13.623,5.126 -20.722,6.641 -1.122,13.35 1.275,28.073 13.374,35.88 2.28,1.471 4.759,2.589 7.348,3.387 2.589,-0.798 5.068,-1.916 7.348,-3.387 12.099,-7.807 14.496,-22.53 13.374,-35.88 -7.099,-1.515 -14.081,-3.708 -20.722,-6.641zm0 -1.808c-6.879,3.101 -14.377,5.487 -22.254,7.081 -2.472,24.681 7.616,38.081 22.254,42.359 14.638,-4.278 24.726,-17.678 22.254,-42.359 -7.877,-1.594 -15.375,-3.98 -22.254,-7.081zm5.316 38.494c0.747,-0.153 1.137,-1.821 1.277,-2.359 0.428,-1.649 0.703,-3.335 0.853,-5.031l0.003 -0.037 0.005 -0.036c0.237,-1.78 0.813,-3.5 1.675,-5.028 0.278,-0.522 0.583,-1.027 0.888,-1.532l0.025 -0.04c0.509,-0.791 0.951,-1.625 1.301,-2.45 1.133,-2.89 1.553,-6.951 -0.907,-9.31 -2.351,-2.255 -6.48,-2.238 -9.085,-0.376 1.683,1.506 2.891,3.39 3.363,4.665 0.062,0.21 0.037,0.436 -0.068,0.627 -0.105,0.192 -0.282,0.334 -0.491,0.395 -0.075,0.023 -0.154,0.035 -0.232,0.035 -0.366,0 -0.688,-0.242 -0.791,-0.594 -1.239,-2.567 -3.278,-4.253 -4.174,-4.893 -2.575,-2.093 -6.948,-2.206 -9.395,0.141 -2.459,2.359 -2.039,6.42 -0.923,9.269 0.367,0.866 0.808,1.7 1.318,2.491l0.024 0.04c0.306,0.505 0.611,1.01 0.869,1.496 0.882,1.564 1.458,3.284 1.695,5.064l0.005 0.036 0.003 0.037c0.15,1.696 0.424,3.382 0.853,5.031 0.14,0.538 0.53,2.206 1.276,2.359 0.358,-0.33 0.792,-1.491 0.915,-1.858 0.596,-1.784 0.933,-3.82 1.193,-5.679 0.249,-1.78 1.07,-3.411 3.023,-3.632l0.186 -0.021 0.186 0.021c1.953,0.221 2.774,1.853 3.023,3.632 0.26,1.859 0.597,3.895 1.193,5.679 0.123,0.367 0.557,1.528 0.914,1.858zm-5.316 -9.528c-0.371,0.042 -1.284,0.17 -1.574,2.22 -0.829,5.952 -2.051,8.971 -3.632,8.971 -2.014,0 -2.646,-2.346 -2.985,-3.606 -0.441,-1.741 -0.742,-3.513 -0.9,-5.302 -0.209,-1.572 -0.717,-3.089 -1.496,-4.471 -0.263,-0.493 -0.558,-0.981 -0.844,-1.453 -0.56,-0.87 -1.045,-1.788 -1.449,-2.741 -1.359,-3.465 -1.728,-8.202 1.3,-11.105 2.973,-2.853 8.27,-2.92 11.58,-0.23 3.31,-2.69 8.607,-2.623 11.579,0.23 3.028,2.903 2.659,7.64 1.301,11.105 -0.404,0.953 -0.889,1.871 -1.45,2.741 -0.285,0.472 -0.58,0.96 -0.843,1.453 -0.779,1.382 -1.287,2.899 -1.496,4.471 -0.159,1.789 -0.459,3.561 -0.9,5.302 -0.339,1.26 -0.971,3.606 -2.986,3.606 -1.58,0 -2.802,-3.019 -3.631,-8.971 -0.291,-2.05 -1.203,-2.178 -1.574,-2.22zm-8.262 -15.747c-1.663,0.964 -2.511,2.894 -2.095,4.771 0.098,0.441 0.532,0.721 0.974,0.628 0.443,-0.093 0.727,-0.525 0.639,-0.967 -0.263,-1.167 0.251,-2.37 1.275,-2.986 0.399,-0.219 0.545,-0.72 0.326,-1.119 -0.219,-0.399 -0.72,-0.544 -1.119,-0.325l0 -0.002z"/>

</svg>
