<?xml version="1.0" encoding="UTF-8"?>
<svg xmlns="http://www.w3.org/2000/svg"
  viewBox="0 0 110 109.999"
	width="95px"
	height="110px"
  class="icon"
>
  <path style="fill-rule:evenodd" fill="currentColor" d="M55 7.929c25.997,0 47.071,21.074 47.071,47.07 0,25.997 -21.074,47.071 -47.071,47.071 -25.996,0 -47.07,-21.074 -47.07,-47.071 0,-25.996 21.074,-47.07 47.07,-47.07zm0 -7.929c30.376,0 55,24.624 55,54.999 0,30.376 -24.624,55 -55,55 -30.376,0 -55,-24.624 -55,-55 0,-30.375 24.624,-54.999 55,-54.999zm-4.474 17.36l8.948 0 0 33.166 23.772 0 0 8.948 -32.72 0 0 -42.114z"/>

</svg>
