<?xml version="1.0" encoding="UTF-8"?>

<svg xmlns="http://www.w3.org/2000/svg"
  xml:space="preserve"

  version="1.1"
  style="shape-rendering:geometricPrecision; text-rendering:geometricPrecision; image-rendering:optimizeQuality; fill-rule:evenodd; clip-rule:evenodd"
viewBox="0 0 50 50"
aria-hidden="true" focusable="false" role="img"
class="icon_trigger">

  <path fill="currentColor" class="icon" d="M3.891 9.167l36.276 -8.779c2.059,-0.498 4.151,0.779 4.65,2.838l4.794 19.811c0.499,2.059 -0.778,4.151 -2.837,4.65l-1.363 0.329 0 17.852c0,2.118 -1.733,3.851 -3.852,3.851l-37.427 0c-2.118,0 -3.851,-1.733 -3.851,-3.851l0 -20.28c0,-1.705 1.093,-3.167 2.614,-3.72l-1.918 -7.926c-0.511,-2.115 0.799,-4.263 2.914,-4.775zm-1.927 16.317l41.766 0c0,-1.19 -0.98,-2.17 -2.171,-2.17l-37.323 0c-1.213,0 -2.217,0.97 -2.272,2.17zm41.766 1.648l-41.769 0 0 3.82 41.769 0 0 -3.82zm0 5.468l-41.769 0 0 13.268c0,1.191 0.98,2.171 2.171,2.171l37.427 0c1.191,0 2.171,-0.98 2.171,-2.171l0 -13.268zm-9.282 6.47c0.47,0.542 0.754,1.249 0.754,2.022 0,0.774 -0.284,1.481 -0.754,2.023 -0.47,-0.542 -0.754,-1.249 -0.754,-2.023 0,-0.773 0.284,-1.48 0.754,-2.022zm1.313 -0.894c0.64,0.799 1.022,1.813 1.022,2.916 0,1.104 -0.382,2.117 -1.022,2.917 0.32,0.112 0.664,0.173 1.022,0.173 1.707,0 3.09,-1.383 3.09,-3.09 0,-1.706 -1.383,-3.09 -3.09,-3.09 -0.358,0 -0.702,0.062 -1.022,0.174zm-2.627 5.833c-0.64,-0.8 -1.022,-1.813 -1.022,-2.917 0,-1.103 0.382,-2.117 1.022,-2.916 -0.32,-0.112 -0.664,-0.174 -1.022,-0.174 -1.707,0 -3.09,1.384 -3.09,3.09 0,1.707 1.383,3.09 3.09,3.09 0.358,0 0.702,-0.061 1.022,-0.173zm3.649 -7.589c2.58,0 4.672,2.092 4.672,4.672 0,2.58 -2.092,4.672 -4.672,4.672 -0.85,0 -1.648,-0.228 -2.335,-0.625 -0.688,0.397 -1.485,0.625 -2.336,0.625 -2.58,0 -4.672,-2.092 -4.672,-4.672 0,-2.58 2.092,-4.672 4.672,-4.672 0.851,0 1.648,0.228 2.336,0.626 0.687,-0.398 1.485,-0.626 2.335,-0.626zm-32.215 -14.787l36.991 0c2.119,0 3.852,1.733 3.852,3.851l0 0.803 0.967 -0.234c1.158,-0.28 1.879,-1.463 1.599,-2.62l-4.794 -19.812c-0.28,-1.157 -1.463,-1.879 -2.62,-1.599l-36.277 8.779c-1.212,0.294 -1.969,1.532 -1.675,2.745l1.957 8.087zm1.095 -8.825l7.94 -1.921c0.451,-0.109 0.908,0.17 1.017,0.62l1.05 4.337c0.109,0.451 -0.17,0.908 -0.621,1.017l-7.962 1.927c-0.451,0.109 -0.909,-0.17 -1.018,-0.621l-1.044 -4.314c-0.112,-0.463 0.175,-0.933 0.638,-1.045zm1.188 1.442l0.655 2.708 6.333 -1.533 -0.655 -2.708 -6.333 1.533zm24.878 1.465l-0.387 -1.601 11.374 -2.752 0.388 1.601 -11.375 2.752zm4.07 3.037l-0.387 -1.601 8.224 -1.99 0.387 1.601 -8.224 1.99z"/>

</svg>
