<?xml version="1.0" encoding="UTF-8"?>

<svg xmlns="http://www.w3.org/2000/svg"
  xml:space="preserve"

  version="1.1"
  style="shape-rendering:geometricPrecision; text-rendering:geometricPrecision; image-rendering:optimizeQuality; fill-rule:evenodd; clip-rule:evenodd"
viewBox="0 0 50 50"
aria-hidden="true" focusable="false" role="img"
class="icon_trigger">

   <path fill="currentColor" class="icon" d="M17.51 29.587c-0.446,0.089 -0.808,0.417 -0.94,0.853l-0.214 0.697c-3.779,1.325 -8.438,3.19 -10.067,4.819 -2.094,2.093 -3.056,8.382 -3.443,11.943 -0.049,0.464 0.101,0.927 0.413,1.274 0.312,0.348 0.756,0.546 1.223,0.547l41.033 0c0.467,0 0.913,-0.198 1.225,-0.546 0.313,-0.348 0.463,-0.812 0.414,-1.276 -0.388,-3.563 -1.349,-9.851 -3.443,-11.944 -1.629,-1.63 -6.288,-3.494 -10.068,-4.819l-0.213 -0.697c-0.177,-0.615 -0.804,-0.985 -1.428,-0.842 -0.077,-0.241 -0.149,-0.471 -0.21,-0.672 1.071,-1.005 1.845,-2.285 2.239,-3.699 0.232,-0.887 0.364,-1.797 0.393,-2.713 1.183,-0.085 2.138,-1.003 2.269,-2.183l0.45 -4.096c0.012,-0.098 0.018,-0.197 0.017,-0.296 -0.001,-0.547 -0.184,-1.079 -0.522,-1.51 0.636,-2.112 1.798,-6.995 -1.994,-10.787 -2.971,-2.975 -7.289,-3.376 -9.624,-3.358l-0.011 0c-2.347,-0.034 -6.674,0.369 -9.657,3.357 -3.79,3.791 -2.63,8.673 -1.995,10.787 -0.337,0.432 -0.52,0.963 -0.52,1.511 -0.002,0.092 0.002,0.182 0.013,0.273l0.453 4.12c0.13,1.179 1.085,2.098 2.269,2.183 0.029,0.917 0.161,1.827 0.394,2.714 0.393,1.414 1.167,2.693 2.236,3.698 -0.059,0.202 -0.131,0.432 -0.209,0.672 -0.159,-0.036 -0.323,-0.04 -0.483,-0.01l0 0zm7.488 2.006c1.907,-0.063 3.767,-0.606 5.408,-1.579 0.078,0.247 0.165,0.5 0.258,0.761l-1.236 1.504c-2.812,1.283 -6.042,1.283 -8.854,0l-1.236 -1.505c0.094,-0.26 0.18,-0.516 0.258,-0.76 1.639,0.973 3.497,1.515 5.402,1.579zm-5.58 1.876l0.023 0.03 3.085 3.745 0 4.886 -4.625 -10.409 0.02 -0.069 1.497 1.817zm6.688 2.841c-0.183,0.221 -0.284,0.499 -0.284,0.786l0 10.976 -1.648 0 0 -10.976c0,-0.286 -0.1,-0.564 -0.282,-0.785l-1.378 -1.669c1.639,0.335 3.329,0.335 4.969,0l-1.377 1.668zm1.364 0.934l3.085 -3.745 0.024 -0.03 1.496 -1.813 0.02 0.07 -4.625 10.404 0 -4.886zm-13.183 3.413c0.91,0 1.648,0.737 1.648,1.647 0,0.911 -0.738,1.648 -1.648,1.648 -0.91,0 -1.648,-0.737 -1.648,-1.648 0,-0.91 0.738,-1.647 1.648,-1.647zm-9.805 7.415c0.47,-4.331 1.497,-9.484 2.966,-10.958 0.958,-0.797 2.029,-1.446 3.179,-1.926 -0.075,1.697 0.383,3.375 1.31,4.799 -1.104,1.116 -1.268,2.856 -0.391,4.158 0.877,1.303 2.551,1.806 4,1.202 1.45,-0.603 2.273,-2.145 1.966,-3.685 -0.305,-1.54 -1.656,-2.65 -3.225,-2.653 -0.314,0.004 -0.625,0.054 -0.925,0.148 -0.93,-1.394 -1.282,-3.094 -0.981,-4.742 1.223,-0.515 2.637,-1.056 4.197,-1.611l5.231 11.77c0.138,0.309 0.397,0.548 0.717,0.659l0 2.839 -18.044 0zm41.033 0l-18.045 0 0 -2.843c0.32,-0.11 0.58,-0.349 0.718,-0.658l5.23 -11.767c0.673,0.238 1.319,0.475 1.932,0.707 0.325,1.002 0.554,2.032 0.683,3.077 -1.147,0.239 -1.969,1.249 -1.971,2.421 0.003,0.213 0.033,0.426 0.092,0.632 -2.894,1.757 -4.325,3.405 -4.206,4.903 0.089,1.128 0.988,2.02 2.67,2.652 0.279,0.116 0.598,0.07 0.834,-0.119 0.235,-0.189 0.348,-0.491 0.294,-0.788 -0.053,-0.297 -0.265,-0.541 -0.551,-0.636 -1.003,-0.376 -1.573,-0.816 -1.607,-1.236 -0.048,-0.597 0.853,-1.831 3.489,-3.416 0.421,0.311 0.932,0.48 1.456,0.48l0.825 0c0.523,-0.002 1.033,-0.171 1.454,-0.484 2.636,1.585 3.536,2.82 3.488,3.417 -0.033,0.423 -0.603,0.863 -1.606,1.236 -0.287,0.095 -0.498,0.339 -0.552,0.636 -0.053,0.297 0.06,0.599 0.295,0.788 0.235,0.189 0.555,0.234 0.833,0.118 1.683,-0.631 2.581,-1.523 2.671,-2.651 0.119,-1.497 -1.309,-3.146 -4.206,-4.904 0.059,-0.204 0.091,-0.416 0.094,-0.628 -0.005,-1.234 -0.919,-2.275 -2.142,-2.439 -0.079,-0.774 -0.215,-1.541 -0.407,-2.295 2.665,1.102 4.514,2.094 5.264,2.844 1.469,1.472 2.497,6.625 2.971,10.953l0 0zm-8.157 -8.239l-0.824 0c-0.455,0 -0.824,-0.37 -0.824,-0.824 0,-0.456 0.369,-0.825 0.824,-0.825l0.824 0c0.455,0 0.823,0.369 0.823,0.825 0,0.454 -0.368,0.824 -0.823,0.824l0 0zm-9.521 -18.158l-1.989 -0.668c-0.556,-0.148 -1.143,-0.148 -1.699,0l-1.989 0.668c-1.282,0.297 -2.629,0.059 -3.732,-0.66 -0.488,-0.335 -0.885,-0.644 -1.184,-0.893 0.021,-0.354 0.052,-0.729 0.089,-1.124 0.477,-0.554 0.909,-1.145 1.293,-1.767 0.004,0.005 0.006,0.011 0.01,0.017 0.314,0.328 0.835,0.339 1.164,0.024 1.281,-1.227 2.159,-0.678 2.265,-0.604 0.361,0.278 0.879,0.21 1.156,-0.151 0.278,-0.361 0.21,-0.879 -0.151,-1.156 -1.076,-0.723 -2.486,-0.704 -3.543,0.047 0.22,-0.576 0.375,-1.174 0.462,-1.785 4.003,0.548 8.077,-0.17 11.65,-2.053 0.027,0.474 0.067,1.056 0.129,1.721 0.005,0.038 0.014,0.076 0.024,0.113 0,0.014 0,0.029 0.006,0.043 0.283,1.401 0.482,2.532 0.627,3.572 0.164,1.106 0.27,2.143 0.329,3.104 -0.299,0.247 -0.695,0.556 -1.181,0.89 -1.103,0.721 -2.452,0.96 -3.736,0.662l0 0zm7.218 -1.525c-0.04,0.339 -0.289,0.617 -0.622,0.694 -0.046,-1.339 -0.17,-2.675 -0.371,-4l0 -1.096c0,-0.35 0.284,-0.634 0.634,-0.634 0.18,-0.001 0.354,0.06 0.494,0.172 0.2,0.158 0.318,0.397 0.322,0.651l-0.457 4.213zm-18.538 -15.345c1.87,-1.87 4.988,-2.915 8.481,-2.875l0.026 0c3.493,-0.04 6.592,1.006 8.455,2.873 2.719,2.719 2.398,6.122 1.7,8.714 -0.159,-0.033 -0.32,-0.051 -0.483,-0.051 -0.406,0.002 -0.805,0.113 -1.153,0.323 -0.047,-0.235 -0.091,-0.467 -0.142,-0.718 -0.163,-1.747 -0.163,-2.89 -0.163,-2.901 0,-0.304 -0.167,-0.584 -0.436,-0.727 -0.268,-0.144 -0.594,-0.128 -0.846,0.041 -0.13,0.087 -0.267,0.165 -0.412,0.247 -3.657,2.125 -7.953,2.874 -12.112,2.111 -0.247,-0.061 -0.508,-0.006 -0.708,0.15 -0.2,0.156 -0.318,0.396 -0.317,0.65 -0.024,1.083 -0.307,2.144 -0.825,3.096 -0.006,-1.256 -1.025,-2.271 -2.282,-2.272 -0.162,0.001 -0.324,0.019 -0.483,0.052 -0.695,-2.592 -1.025,-5.99 1.7,-8.713l0 0zm-1.576 15.344l-0.453 -4.12c0,-0.007 0,-0.082 0,-0.092 0.002,-0.252 0.118,-0.49 0.314,-0.648 0.142,-0.114 0.317,-0.176 0.498,-0.175 0.351,0 0.635,0.284 0.635,0.634l0 1.096c-0.088,0.58 -0.161,1.157 -0.219,1.73 -0.082,0.835 -0.135,1.582 -0.156,2.272 -0.333,-0.079 -0.58,-0.358 -0.619,-0.697l0 0zm2.611 4.629c-0.216,-0.854 -0.331,-1.732 -0.342,-2.613 0.095,0.068 0.184,0.134 0.286,0.203 1.604,1.053 3.589,1.347 5.429,0.806 0.048,-0.008 0.095,-0.021 0.141,-0.038 0.424,-0.117 0.837,-0.267 1.236,-0.451 0.443,-0.211 0.959,-0.209 1.401,0.006 0.4,0.184 0.815,0.335 1.241,0.452 0.029,0.01 0.059,0.019 0.089,0.026 0.624,0.173 1.267,0.264 1.914,0.27 1.266,0.011 2.505,-0.362 3.553,-1.071 0.102,-0.069 0.192,-0.135 0.286,-0.203 -0.011,0.881 -0.126,1.757 -0.342,2.611 -0.346,1.281 -1.082,2.422 -2.106,3.266 -1.543,1.166 -3.407,1.831 -5.34,1.903 -1.935,-0.068 -3.801,-0.733 -5.343,-1.905 -1.022,-0.843 -1.757,-1.983 -2.103,-3.262z" />
   <path fill="currentColor" class="icon" d="M22.526 18.41c0,0.454 -0.369,0.823 -0.824,0.823 -0.455,0 -0.824,-0.369 -0.824,-0.823 0,-0.456 0.369,-0.824 0.824,-0.824 0.455,0 0.824,0.368 0.824,0.824zm0 0z" />
   <path fill="currentColor" class="icon" d="M29.118 18.41c0,0.454 -0.369,0.823 -0.824,0.823 -0.455,0 -0.824,-0.369 -0.824,-0.823 0,-0.456 0.369,-0.824 0.824,-0.824 0.455,0 0.824,0.368 0.824,0.824zm0 0z" />
   <path fill="currentColor" class="icon" d="M30.232 17.267c0.211,0.211 0.52,0.291 0.808,0.21 0.287,-0.081 0.508,-0.312 0.576,-0.603 0.069,-0.291 -0.025,-0.596 -0.245,-0.798 -1.895,-1.813 -3.714,-1.265 -4.409,-0.719 -0.359,0.28 -0.422,0.799 -0.141,1.157 0.281,0.358 0.799,0.421 1.157,0.141 0.008,-0.008 0.903,-0.682 2.254,0.612l0 0zm0 0z"/>

</svg>
