<?xml version="1.0" encoding="UTF-8"?>
<svg xmlns="http://www.w3.org/2000/svg"
  viewBox="0 0 95 110.21"
	width="95px"
	height="110px"
  class="icon"
>
  <path style="fill-rule:evenodd" fill="currentColor" d="M60.658 66.701c7.865,1.025 16.239,3.114 23.074,6.827 5.403,2.934 11.268,7.792 11.268,14.507 0,7.938 -8.11,13.27 -14.55,16.117 -9.956,4.402 -22.137,6.058 -32.95,6.058 -10.812,0 -22.994,-1.656 -32.95,-6.058 -6.439,-2.847 -14.55,-8.179 -14.55,-16.117 0,-6.715 5.865,-11.573 11.268,-14.507 6.836,-3.713 15.21,-5.802 23.074,-6.827 -2.416,-4.22 -5.036,-8.285 -7.576,-12.443 -2.74,-4.486 -5.366,-9.118 -6.983,-14.144 -1.122,-3.487 -1.706,-7.026 -1.706,-10.691 0,-16.249 13.174,-29.423 29.422,-29.423 16.249,0 29.424,13.174 29.424,29.423 0,3.664 -0.584,7.203 -1.705,10.689 -1.617,5.027 -4.243,9.659 -6.983,14.145 -2.541,4.158 -5.16,8.224 -7.577,12.444zm-7.447 -49.758c1.714,0.777 3.255,1.902 4.522,3.293 1.498,1.643 -0.581,3.536 -2.078,1.893 -1.01,-1.109 -2.239,-2.006 -3.605,-2.626 -2.025,-0.918 -0.864,-3.478 1.161,-2.56zm8.128 12.609c0,7.642 -6.197,13.838 -13.839,13.838 -7.642,0 -13.838,-6.196 -13.838,-13.838 0,-6.501 4.534,-12.137 10.877,-13.521 2.173,-0.473 2.771,2.273 0.598,2.747 -5.052,1.101 -8.664,5.596 -8.664,10.774 0,6.091 4.937,11.027 11.027,11.027 6.091,0 11.027,-4.936 11.027,-11.027 0,-2.224 2.812,-2.224 2.812,0zm-13.839 -3.461c1.911,0 3.461,1.55 3.461,3.461 0,1.911 -1.55,3.46 -3.461,3.46 -1.911,0 -3.461,-1.549 -3.461,-3.46 0,-1.911 1.55,-3.461 3.461,-3.461zm21.475 70.633c-2.121,0.689 -4.352,1.164 -6.549,1.529 -2.182,0.363 -2.642,-2.398 -0.458,-2.76 2.059,-0.342 4.157,-0.785 6.144,-1.43 2.104,-0.684 2.969,1.979 0.863,2.661zm-14.157 2.402c-2.435,0.171 -4.877,0.251 -7.318,0.251 -6.704,0 -14.947,-0.563 -21.363,-2.617 -2.107,-0.673 -1.256,-3.339 0.853,-2.665 6.122,1.96 14.116,2.484 20.51,2.484 2.376,0 4.753,-0.078 7.123,-0.244 2.208,-0.154 2.403,2.637 0.195,2.791zm-7.317 -23.426c2.736,-6.511 6.04,-12.513 9.75,-18.557 3.731,-6.08 8.336,-12.607 10.528,-19.423 0.87,-2.705 1.33,-5.454 1.33,-8.297 0,-11.936 -9.674,-21.609 -21.61,-21.609 -11.935,0 -21.608,9.673 -21.608,21.609 0,2.84 0.461,5.595 1.33,8.297 2.195,6.822 6.799,13.358 10.539,19.439 3.701,6.019 7.011,12.052 9.741,18.541zm-9.267 -1.609c-7.29,0.663 -15.406,2.219 -21.952,5.313 -3.108,1.469 -8.468,4.613 -8.468,8.631 0,4.724 7.281,8.255 10.907,9.684 15.868,6.252 41.69,6.252 57.559,0 3.626,-1.429 10.906,-4.96 10.906,-9.684 0,-4.018 -5.36,-7.162 -8.467,-8.631 -6.546,-3.094 -14.662,-4.651 -21.952,-5.313 -2.226,4.647 -4.078,9.425 -5.536,14.377 -1.387,4.711 -6.052,4.8 -7.446,0.055 -1.461,-4.971 -3.318,-9.768 -5.551,-14.432z"/>

</svg>
