<?xml version="1.0" encoding="UTF-8"?>

<svg xmlns="http://www.w3.org/2000/svg"
	xml:space="preserve"

	version="1.1"
	style="shape-rendering:geometricPrecision; text-rendering:geometricPrecision; image-rendering:optimizeQuality; fill-rule:evenodd; clip-rule:evenodd"
viewBox="0 0 50 50"
aria-hidden="true" focusable="false" role="img"
class="icon_trigger">

  <path fill="currentColor" class="icon" d="M37.161 28.322l0 -1.717c0,-4.966 -0.002,-19.329 -0.003,-24.296 -0.008,-0.221 -0.081,-0.316 -0.348,-0.312 -1.641,-0.001 -3.283,0.001 -4.924,0.002 -0.333,0.02 -0.631,0.205 -0.878,0.418l-1.696 1.716c0.5,1.006 0.332,2.263 -0.506,3.099l-2.395 2.39 -3.81 -3.801 2.396 -2.39c0.835,-0.833 2.09,-1.003 3.096,-0.509l1.755 -1.773c0.498,-0.515 1.255,-0.85 2.015,-0.866 1.65,-0.001 3.299,-0.003 4.948,-0.002 1.696,0.001 2.069,1.124 2.07,2.577 0.001,4.966 0,18.781 0,23.747l10.213 0 0 2.342c0,1.29 -1.054,2.341 -2.346,2.341l-4.361 0c-1.292,0 -2.346,-1.051 -2.346,-2.341l0 -0.625 -1.16 0c0,2.241 0,4.482 0,6.724 0.051,0.024 0.101,0.051 0.151,0.079l9.144 5.127c1.415,0.793 1.921,2.594 1.126,4.007 -0.795,1.411 -2.601,1.917 -4.016,1.123l-6.405 -3.591 0 7.929 -22.599 0c-0.475,0 -0.861,-0.384 -0.861,-0.858 0,-0.474 0.386,-0.858 0.861,-0.858l11.205 0 0 -2.576c0,-1.415 -1.163,-2.576 -2.581,-2.576l-1.68 0 -0.148 0.148 -0.018 0.016c-1.851,1.649 -4.672,1.358 -4.796,-1.449l-0.001 -0.038 0 -3.634c-1.199,-0.367 -2.078,-1.479 -2.089,-2.79l-1.924 -1.955c-1.221,0.462 -2.653,0.068 -3.447,-1.04l-9.934 -13.865c-0.944,-1.318 -0.637,-3.162 0.684,-4.105 1.322,-0.942 3.171,-0.635 4.115,0.683l9.934 13.864c0.745,1.04 0.711,2.408 0.015,3.401l1.174 1.194c0.37,-0.475 0.882,-0.836 1.472,-1.016l0 -2.109c0.044,-1.602 0.755,-2.466 2.421,-2.466l7.14 0c0.476,0 0.861,0.385 0.861,0.859 0,0.474 -0.385,0.858 -0.861,0.858l-7.14 0c-0.675,0 -0.683,0.13 -0.701,0.773l0 1.957 11.078 0c1.624,0 2.949,1.322 2.949,2.942 0,0.03 0,0.059 -0.001,0.088l1.446 0.489c0.46,-0.479 1.065,-0.781 1.705,-0.876 0,-2.153 0,-4.306 0.001,-6.459zm-7.954 19.682l3.197 0 0 -2.576c0,-1.415 -1.163,-2.576 -2.581,-2.576l-1.481 0c0.543,0.719 0.865,1.611 0.865,2.576l0 2.576zm4.918 0l3.035 0 0 -7.178 -1.018 -0.571c-1.108,-0.621 -1.659,-1.861 -1.464,-3.048l-1.221 -0.414c-0.374,0.518 -0.911,0.911 -1.536,1.102l0 0.358c-0.014,1.328 -1.328,1.94 -2.487,1.922l-3.326 0c-0.246,0 -0.587,0.388 -0.743,0.543l-0.418 0.418 4.876 0c2.368,0 4.302,1.93 4.302,4.292l0 2.576zm-3.924 -9.981l-10.218 0 0 3.485c0.068,1.287 1.239,0.834 1.914,0.242l2.251 -2.245c0.571,-0.57 1.099,-1.047 1.96,-1.047l3.34 0c0.147,0.003 0.68,-0.052 0.753,-0.214l0 -0.221zm-5.172 -32.202l1.382 1.378 1.181 -1.178c0.379,-0.378 0.379,-1 0,-1.378 -0.379,-0.378 -1.002,-0.378 -1.381,0l-1.182 1.178zm22.348 22.497l-5.619 0 0 0.629c0,0.344 0.284,0.628 0.629,0.628l4.361 0c0.345,0 0.629,-0.284 0.629,-0.628l0 -0.629zm-10.864 8.77c-0.331,0.587 -0.118,1.344 0.47,1.674l9.145 5.127c0.588,0.33 1.346,0.117 1.677,-0.47 0.331,-0.587 0.118,-1.344 -0.471,-1.674l-9.143 -5.127c-0.589,-0.33 -1.347,-0.118 -1.678,0.47zm-18.622 -2.007c0,0.674 0.556,1.229 1.232,1.229l11.938 0c0.677,0 1.232,-0.555 1.232,-1.23 0,-0.675 -0.555,-1.229 -1.232,-1.229l-11.938 0c-0.676,0 -1.232,0.555 -1.232,1.23zm-15.339 -19.547c-0.55,0.392 -0.679,1.166 -0.286,1.715l9.934 13.865c0.393,0.549 1.169,0.678 1.719,0.285 0.55,-0.392 0.679,-1.166 0.286,-1.715l-9.934 -13.865c-0.393,-0.549 -1.169,-0.678 -1.719,-0.285z"/>

</svg>
