<?xml version="1.0" encoding="UTF-8"?>

<svg xmlns="http://www.w3.org/2000/svg"
  xml:space="preserve"

  version="1.1"
  style="shape-rendering:geometricPrecision; text-rendering:geometricPrecision; image-rendering:optimizeQuality; fill-rule:evenodd; clip-rule:evenodd"
viewBox="0 0 50 50"
aria-hidden="true" focusable="false" role="img"
class="icon_trigger">

  <path fill="currentColor" class="icon" d="M10.806 49.464c-1.79,0.05 -4.109,0.192 -5.659,-0.658 -1.137,-0.625 -1.739,-1.672 -2.052,-2.895 -0.547,-2.14 -0.528,-4.477 -0.729,-6.672 -0.118,-1.29 -0.351,-2.572 -0.544,-3.853 -0.263,-1.748 -0.505,-3.501 -0.656,-5.264 -0.239,-2.788 -0.533,-8.333 2.045,-10.092 1.587,-1.082 3.452,-0.787 5.235,-0.79 4.191,-0.006 6.255,0.543 9.53,-2.473 2.231,-2.055 3.232,-4.57 3.607,-7.537 0.146,-1.151 0.187,-2.314 0.257,-3.471 0.049,-0.825 0.101,-1.797 0.417,-2.563 1.198,-2.906 4.358,-3.828 6.879,-1.903 1.861,1.421 2.605,3.444 3.121,5.645 0.805,3.431 -0.079,6.977 -0.695,10.36 2.598,0.102 5.202,-0.135 7.801,-0.159 2.113,-0.019 4.493,0.102 6.37,1.171 2.048,1.166 3.595,3.226 3.186,5.685 -0.235,1.416 -0.762,2.617 -1.644,3.415 1.109,1.182 1.462,3.223 1.239,4.716 -0.199,1.337 -1.07,2.762 -2.279,3.511 1.217,2.121 0.46,5.767 -2.881,6.546 0.353,0.657 0.537,1.424 0.541,2.141 0.013,2.204 -1.409,3.874 -3.454,4.56 -3.377,1.134 -18.866,1.081 -22.335,0.039 -0.807,-0.243 -1.6,-0.522 -2.364,-0.88 -0.781,-0.368 -0.836,-0.527 -1.543,-0.124 -1.065,0.606 -2.116,1.511 -3.393,1.545zm4.228 -28.966l0 25.527c0.537,0.043 0.936,0.269 1.422,0.497 0.69,0.323 1.404,0.573 2.133,0.792 3.054,0.917 18.327,0.982 21.318,-0.022 3.414,-1.146 2.431,-5.038 0.93,-5.111 -0.521,-0.026 -0.745,-0.079 -1.258,-0.139 -1.024,-0.119 -0.873,-1.415 0.152,-1.295 1.478,0.173 1.77,0.124 3.197,-0.19 2.955,-0.65 2.599,-4.705 0.762,-4.781 -0.76,-0.031 -1.073,-0.06 -1.838,-0.146 -1.024,-0.116 -0.878,-1.412 0.148,-1.296 0.8,0.091 1.622,0.139 2.433,0.153 1.223,0.022 2.257,-1.517 2.42,-2.609 0.175,-1.174 -0.202,-3.552 -1.573,-3.726 -0.825,-0.106 -2.126,-0.097 -2.366,-0.122 -1.024,-0.105 -0.89,-1.364 0.139,-1.297 0.402,0.026 0.785,0.041 1.157,0.048 1.917,0.037 2.736,-1.163 3.052,-3.061 0.282,-1.702 -0.9,-3.119 -2.361,-3.951 -1.567,-0.893 -3.763,-0.966 -5.523,-0.95 -2.638,0.024 -5.243,0.262 -7.889,0.157l-1.926 -0.076 0.345 -1.895c0.558,-3.066 1.44,-6.585 0.713,-9.684 -0.421,-1.794 -0.993,-3.539 -2.505,-4.693 -1.646,-1.257 -3.525,-0.685 -4.306,1.209 -0.213,0.516 -0.26,1.465 -0.293,2.023 -0.073,1.2 -0.116,2.385 -0.267,3.581 -0.425,3.359 -1.603,6.229 -4.136,8.562 -1.495,1.377 -2.772,2.109 -4.08,2.495zm-1.692 26.007l0 -25.682c-1.403,0.148 -2.947,0.067 -4.893,0.07 -1.293,0.002 -3.185,-0.263 -4.307,0.503 -1.835,1.251 -1.492,6.685 -1.33,8.585 0.148,1.727 0.386,3.445 0.644,5.159 0.196,1.3 0.436,2.641 0.556,3.948 0.181,1.98 0.202,4.528 0.684,6.413 0.196,0.768 0.529,1.462 1.246,1.856 0.962,0.528 2.669,0.519 4.098,0.478 1.524,-0.045 1.801,-0.29 3.302,-1.33z"/>

</svg>
