<?xml version="1.0" encoding="UTF-8" standalone="no"?>
<svg
   viewBox="0 0 576 512"
   aria-hidden="true"
   focusable="false"
   role="img"
   class="bvi-svg"
>

  <path
     style="fill-rule:evenodd;stroke:none;stroke-width:1.15247"
     d="m 30.56053,63.999998 h 514.92249 c 16.90549,0 30.7176,13.844891 30.7176,30.737404 V 417.26259 C 576.20062,434.1551 562.38851,448 545.48302,448 H 30.56053 C 13.65496,448 -0.20062,434.1551 -0.20062,417.26259 V 94.737402 c 0,-16.892513 13.85558,-30.737404 30.76115,-30.737404 z m 0,15.368705 h 514.92249 c 8.45279,0 15.33696,6.922443 15.33696,15.368699 V 417.26259 c 0,8.44625 -6.88417,15.36871 -15.33696,15.36871 H 30.56053 c -8.45279,0 -15.38058,-6.92246 -15.38058,-15.36871 V 94.737402 c 0,-8.446256 6.92779,-15.368699 15.38058,-15.368699 z m 64.48514,30.693867 c 27.10117,0 49.10456,21.98641 49.10456,49.11021 0,27.08028 -22.00339,49.06666 -49.10456,49.06666 -27.14476,0 -49.14815,-21.98638 -49.14815,-49.06666 0,-27.1238 22.00339,-49.11021 49.14815,-49.11021 z m 86.35778,215.55375 C 389.2373,98.568701 318.91365,134.66122 545.48302,382.17143 v 35.09116 H 30.56053 v -29.17007 c 80.38856,-106.05715 70.28008,-168.79457 150.84292,-62.4762 z"
     id="path1261" />
</svg>
