<?xml version="1.0" encoding="UTF-8"?>
<!DOCTYPE svg PUBLIC "-//W3C//DTD SVG 1.1//EN" "http://www.w3.org/Graphics/SVG/1.1/DTD/svg11.dtd">
<!-- Creator: CorelDRAW 2020 (64-Bit) -->
<svg xmlns="http://www.w3.org/2000/svg" xml:space="preserve" width="249px" height="69px" version="1.1" style="shape-rendering:geometricPrecision; text-rendering:geometricPrecision; image-rendering:optimizeQuality; fill-rule:evenodd; clip-rule:evenodd"
viewBox="0 0 103.201 28.635"
 xmlns:xlink="http://www.w3.org/1999/xlink"
 xmlns:xodm="http://www.corel.com/coreldraw/odm/2003">
 <defs>
  <style type="text/css">
   <![CDATA[
    .fil2 {fill:#70A3D0}
    .fil0 {fill:#566BAF;fill-rule:nonzero}
    .fil1 {fill:#70A3D0;fill-rule:nonzero}
   ]]>
  </style>
 </defs>
 <g id="Слой_x0020_1">
  <metadata id="CorelCorpID_0Corel-Layer"/>
  <path class="fil0" d="M18.272 7.025c0,-2.264 0.538,-3.997 1.614,-5.212 1.076,-1.209 2.689,-1.813 4.841,-1.813 2.151,0 3.765,0.604 4.84,1.813 1.076,1.208 1.614,2.549 1.614,4.806l-4.143 0.525 0 -0.804c0,-1.009 -0.193,-1.327 -0.578,-1.738 -0.385,-0.412 -0.923,-0.618 -1.614,-0.618 -0.69,0 -1.228,0.206 -1.613,0.618 -0.386,0.411 -0.578,1.122 -0.578,2.131 0,0.957 0.212,1.8 0.637,2.53 0.425,0.731 0.957,1.421 1.594,2.072 0.637,0.651 1.321,1.302 2.052,1.952 0.73,0.651 1.414,1.362 2.052,2.132 0.637,0.77 1.168,1.647 1.593,2.63 0.425,0.982 0.638,2.138 0.638,3.466 0,2.258 -0.551,3.991 -1.654,5.199 -1.102,1.209 -2.729,1.813 -4.88,1.813 -2.152,0 -3.779,-0.604 -4.881,-1.813 -1.102,-1.208 -1.653,-2.548 -1.653,-4.806l0 -1.323 4.143 -0.196 0 1.818c0,1.016 0.208,1.331 0.618,1.732 0.413,0.403 0.963,0.604 1.653,0.604 0.691,0 1.242,-0.199 1.654,-0.598 0.411,-0.398 0.617,-1.102 0.617,-2.118 0,-0.956 -0.212,-1.8 -0.637,-2.53 -0.425,-0.737 -0.956,-1.428 -1.594,-2.079 -0.637,-0.65 -1.321,-1.301 -2.052,-1.952 -0.73,-0.651 -1.414,-1.368 -2.052,-2.138 -0.637,-0.77 -1.168,-1.647 -1.593,-2.63 -0.425,-0.989 -0.638,-2.144 -0.638,-3.473zm14.954 -6.706l13.546 0 0 3.984 -4.582 0 0 23.905 -4.382 0 0 -23.905 -4.582 0 0 -3.984zm20.532 0l0 21.548c0,1.016 0.205,1.72 0.617,2.118 0.412,0.398 0.963,0.598 1.654,0.598 0.69,0 1.241,-0.2 1.653,-0.598 0.412,-0.398 0.618,-1.102 0.618,-2.118l0 -21.548 4.143 0 0 21.236c0,2.257 -0.551,3.99 -1.653,5.199 -1.103,1.209 -2.729,1.813 -4.881,1.813 -2.151,0 -3.778,-0.604 -4.881,-1.813 -1.102,-1.209 -1.653,-2.942 -1.653,-5.199l0 -21.236 4.383 0zm11.885 0l6.933 0c2.205,0 3.845,0.584 4.921,1.753 1.075,1.168 1.613,2.882 1.613,5.139l0 14.105c0,2.257 -0.538,3.971 -1.613,5.139 -1.076,1.169 -2.716,1.753 -4.921,1.753l-6.933 0 0 -27.889zm4.383 3.984l0 19.921 2.47 0c0.691,0 1.235,-0.199 1.634,-0.598 0.398,-0.398 0.598,-1.102 0.598,-2.111l0 -14.503c0,-1.009 -0.2,-1.713 -0.598,-2.111 -0.399,-0.399 -0.943,-0.598 -1.634,-0.598l-2.47 0zm12.284 1.808l4.383 0 0 22.097 -4.383 0 0 -22.097zm11.966 15.683c0,1.009 0.206,1.72 0.618,2.131 0.411,0.412 0.962,0.618 1.653,0.618 0.691,0 1.242,-0.206 1.653,-0.618 0.412,-0.411 0.618,-1.122 0.618,-2.131l0 -15.061c0,-1.009 -0.206,-1.72 -0.618,-2.131 -0.411,-0.412 -0.962,-0.618 -1.653,-0.618 -0.691,0 -1.242,0.206 -1.653,0.618 -0.412,0.411 -0.618,1.122 -0.618,2.131l0 15.061zm-4.383 -14.782c0,-2.258 0.571,-3.991 1.714,-5.199 1.142,-1.209 2.789,-1.813 4.94,-1.813 2.152,0 3.798,0.604 4.941,1.813 1.142,1.208 1.713,2.941 1.713,5.199l0 14.503c0,2.258 -0.571,3.991 -1.713,5.199 -1.143,1.209 -2.789,1.813 -4.941,1.813 -2.151,0 -3.798,-0.604 -4.94,-1.813 -1.143,-1.208 -1.714,-2.941 -1.714,-5.199l0 -14.503z"/>
  <path class="fil1" d="M11.238 23.344l-11.238 -1.696 0 -3.459 15.828 0 0 2.351 -11.351 0 11.351 1.719 0 2.352 -11.193 1.854 11.193 0 0 2.17 -15.828 0 0 -3.459 11.238 -1.832zm-4.568 -9.504l0 -3.414 2.262 0 0 3.414 4.635 0 0 -4.296 2.261 0 0 6.783 -15.828 0 0 -6.783 2.261 0 0 4.296 4.409 0zm-6.67 -6.067l0 -3.935c0,-1.251 0.332,-2.182 0.995,-2.792 0.663,-0.611 1.635,-0.916 2.917,-0.916l8.004 0c1.282,0 2.254,0.305 2.917,0.916 0.664,0.61 0.995,1.541 0.995,2.792l0 3.935 -15.828 0zm2.261 -2.487l11.306 0 0 -1.402c0,-0.392 -0.113,-0.701 -0.339,-0.927 -0.226,-0.227 -0.626,-0.34 -1.199,-0.34l-8.23 0c-0.573,0 -0.973,0.113 -1.199,0.34 -0.226,0.226 -0.339,0.535 -0.339,0.927l0 1.402z"/>
  <path class="fil2" d="M84.502 0c1.303,0 2.359,1.056 2.359,2.359 0,1.303 -1.056,2.359 -2.359,2.359 -1.303,0 -2.359,-1.056 -2.359,-2.359 0,-1.303 1.056,-2.359 2.359,-2.359z"/>
 </g>
</svg>
